<svg xmlns="http://www.w3.org/2000/svg" xmlns:xlink="http://www.w3.org/1999/xlink" version="1.1" id="Layer_1" x="0px" y="0px" viewBox="0 0 17.1 17.1" style="enable-background:new 0 0 17.1 17.1;" xml:space="preserve">
<style type="text/css">
	.st0{fill:#FFFFFF;}
	.st1{fill:#171A40;}
</style>
<g>
	<circle class="st0" cx="8.6" cy="8.6" r="8"/>
	<g>
		<g>
			<path class="st1" d="M8.5,15.6c-0.2,0-0.5,0-0.7,0c-0.7-0.1-1.4-0.3-2.1-0.5c-1.9-0.8-3.4-2.5-4-4.4c-0.1-0.3-0.2-0.7-0.2-1.1     C1.5,9.1,1.5,8.7,1.5,8.3C1.5,6.7,2,5.4,3,4.2C3.9,3,5,2.3,6.3,1.8C6.7,1.7,7,1.6,7.4,1.5c0.2,0,0.5-0.1,0.7-0.1     c0.2,0,0.5,0,0.7,0c0.2,0,0.3,0,0.5,0c0.2,0,0.4,0.1,0.6,0.1c0.6,0.1,1.2,0.3,1.8,0.6c1.8,0.9,3.1,2.5,3.6,4.4     c0.1,0.3,0.2,0.7,0.2,1c0.1,0.4,0.1,0.9,0,1.3c-0.1,1.2-0.4,2.3-1,3.3c-0.8,1.4-2,2.3-3.5,2.9c-0.4,0.2-0.9,0.3-1.3,0.4     c-0.3,0-0.5,0.1-0.8,0.1C8.9,15.6,8.7,15.6,8.5,15.6z M9.4,2.8c0,0,0,0.1,0,0.1c0,1,0,1.9,0,2.9c0,0.4,0,0.8,0,1.2     c0,0,0,0.1,0,0.1C9.5,7.4,9.5,7.7,9.6,8c0.1,0.3,0.2,0.6,0.3,0.9c0,0,0,0,0,0.1c0,0-0.1,0-0.1,0C9.8,9,9.7,9,9.6,9c0,0,0,0-0.1,0     c0,0,0,0.1,0,0.1c0.4,1.3,0.8,2.7,1.1,4c0.1,0.2,0.1,0.4,0.2,0.6c0,0,0,0,0,0.1c0,0-0.1,0-0.1,0c-1.6,0-3.2,0-4.7,0     c0,0,0,0-0.1,0c-0.1,0-0.2,0-0.2-0.1c-0.1-0.1-0.2-0.1-0.2-0.3c0-0.1,0-0.1,0-0.2c0.3-1.1,0.6-2.1,0.9-3.2C6.6,9.7,6.7,9.4,6.8,9     c0,0,0,0,0-0.1c0,0,0.1,0,0.1,0c0.8,0,1.7,0,2.5,0c0,0,0,0,0.1,0c0,0,0,0,0,0c0,0,0-0.1,0-0.1C9.3,8.3,9.2,7.7,9,7.1     c0,0,0-0.1,0-0.1c0-0.6,0-1.2,0-1.8c0-0.8,0-1.6,0-2.3c0,0,0,0,0-0.1c0,0-0.1,0-0.1,0c-0.1,0-0.2,0-0.2,0c-0.2,0-0.4,0-0.6,0     c-0.2,0-0.3,0-0.5,0.1C7.3,2.9,7.1,2.9,6.9,3c0,0,0,0-0.1,0c0,0,0,0.1,0,0.1c0,1.1,0,2.2,0,3.3c0,0.1,0,0.1,0,0.1     C6.6,7.3,6.4,8.1,6.2,8.9c-0.4,1.4-0.8,2.8-1.2,4.1c-0.1,0.3,0,0.5,0.1,0.8c0.2,0.3,0.5,0.5,0.9,0.5c0.7,0,1.5,0,2.2,0     c1,0,2,0,2.9,0c0.1,0,0.1,0,0.2,0c0.1,0,0.1,0,0.2-0.1c0.2-0.1,0.4-0.3,0.5-0.5c0.1-0.3,0.2-0.5,0.1-0.8     c-0.1-0.3-0.2-0.6-0.3-0.9c-0.5-1.8-1.1-3.7-1.6-5.5c0-0.1,0-0.1,0-0.2c0-1.1,0-2.2,0-3.3c0,0,0-0.1,0-0.1     C10.1,3,9.5,2.8,9.4,2.8z M7.1,10.6C7.1,10.6,7.1,10.6,7.1,10.6c0-0.1,0-0.2-0.1-0.2c-0.1-0.1-0.2,0-0.2,0c0,0,0,0.1-0.1,0.1     c-0.1,0.5-0.3,1-0.4,1.5c-0.1,0.2-0.1,0.4-0.2,0.6c0,0.1,0,0.1,0,0.2c0,0,0.1,0.1,0.1,0.1c0.1,0,0.2,0,0.2-0.1c0,0,0,0,0,0     c0.1-0.4,0.2-0.7,0.3-1.1C6.9,11.4,7,11,7.1,10.6C7.1,10.7,7.1,10.7,7.1,10.6z"/>
			<path class="st1" d="M9.9,9c0.1,0,0.3,0,0.4,0c0,0,0,0.1,0,0.1c0.1,0.5,0.3,1,0.4,1.5c0.3,0.9,0.5,1.8,0.8,2.7c0,0.1,0,0.1,0,0.2     c0,0.1-0.1,0.2-0.2,0.2c0,0,0,0,0,0c-0.1-0.2-0.1-0.5-0.2-0.7C10.7,11.6,10.3,10.3,9.9,9C9.9,9,9.9,9,9.9,9z"/>
		</g>
	</g>
</g>
<script xmlns=""/></svg>